<svg width="62" height="47" viewBox="0 0 62 47" fill="none" xmlns="http://www.w3.org/2000/svg">
<path d="M18.5162 19.2825C20.5502 19.2825 22.5385 18.7171 24.2297 17.6577C25.9209 16.5983 27.239 15.0925 28.0173 13.3308C28.7957 11.5691 28.9994 9.63057 28.6026 7.76035C28.2058 5.89013 27.2263 4.17222 25.7881 2.82386C24.3498 1.47551 22.5174 0.557269 20.5225 0.185258C18.5276 -0.186752 16.4598 0.0041774 14.5807 0.733902C12.7015 1.46363 11.0954 2.69937 9.96534 4.28487C8.83532 5.87036 8.23218 7.7344 8.23218 9.64126C8.23538 12.1974 9.3199 14.6479 11.2478 16.4553C13.1758 18.2628 15.7897 19.2795 18.5162 19.2825ZM18.5162 3.85651C19.7366 3.85651 20.9295 4.19578 21.9443 4.83142C22.959 5.46705 23.7499 6.37051 24.2169 7.42753C24.6839 8.48456 24.8061 9.64768 24.568 10.7698C24.3299 11.8919 23.7423 12.9227 22.8793 13.7317C22.0164 14.5407 20.9169 15.0917 19.72 15.3149C18.523 15.5381 17.2824 15.4235 16.1549 14.9857C15.0274 14.5478 14.0637 13.8064 13.3857 12.8551C12.7077 11.9038 12.3458 10.7854 12.3458 9.64126C12.3476 8.10756 12.9982 6.63716 14.155 5.55267C15.3118 4.46818 16.8802 3.85818 18.5162 3.85651Z" fill="#797979"/>
<path d="M18.511 23.1387C13.9915 23.1904 9.64254 24.7639 6.25769 27.572C2.87283 30.38 0.677797 34.2355 0.0731543 38.4348C-0.0753819 39.418 0.00285721 40.4197 0.302588 41.3721C0.602319 42.3246 1.11656 43.2057 1.81059 43.9559C2.4824 44.6833 3.31297 45.2671 4.24615 45.6676C5.17934 46.0682 6.19338 46.2762 7.21973 46.2777H29.8024C30.8287 46.2762 31.8428 46.0682 32.7759 45.6676C33.7091 45.2671 34.5397 44.6833 35.2115 43.9559C35.9055 43.2057 36.4198 42.3246 36.7195 41.3721C37.0192 40.4197 37.0975 39.418 36.9489 38.4348C36.3443 34.2355 34.1493 30.38 30.7644 27.572C27.3795 24.7639 23.0305 23.1904 18.511 23.1387ZM32.1082 41.4251C31.8239 41.7379 31.4704 41.9891 31.0722 42.1611C30.6741 42.3331 30.2408 42.4218 29.8024 42.4212H7.21973C6.78132 42.4218 6.34801 42.3331 5.94984 42.1611C5.55168 41.9891 5.19818 41.7379 4.91387 41.4251C4.60631 41.0909 4.37869 40.6989 4.24633 40.2753C4.11398 39.8518 4.07997 39.4065 4.14658 38.9696C4.61062 35.6902 6.31676 32.6765 8.95373 30.4783C11.5907 28.28 14.9827 27.0438 18.511 26.9952C22.0393 27.0438 25.4314 28.28 28.0684 30.4783C30.7053 32.6765 32.4115 35.6902 32.8755 38.9696C32.9421 39.4065 32.9081 39.8518 32.7758 40.2753C32.6434 40.6989 32.4158 41.0909 32.1082 41.4251Z" fill="#797979"/>
<path d="M43.1951 19.2825C45.2291 19.2825 47.2174 18.7171 48.9086 17.6577C50.5998 16.5983 51.9179 15.0925 52.6963 13.3308C53.4747 11.5691 53.6783 9.63057 53.2815 7.76035C52.8847 5.89013 51.9053 4.17222 50.467 2.82386C49.0288 1.47551 47.1963 0.557269 45.2014 0.185258C43.2065 -0.186752 41.1388 0.0041774 39.2596 0.733902C37.3805 1.46363 35.7743 2.69937 34.6443 4.28487C33.5143 5.87036 32.9111 7.7344 32.9111 9.64126C32.9143 12.1974 33.9989 14.6479 35.9268 16.4553C37.8547 18.2628 40.4686 19.2795 43.1951 19.2825ZM43.1951 3.85651C44.4155 3.85651 45.6085 4.19578 46.6232 4.83142C47.6379 5.46705 48.4288 6.37051 48.8958 7.42753C49.3629 8.48456 49.4851 9.64768 49.247 10.7698C49.0089 11.8919 48.4212 12.9227 47.5583 13.7317C46.6953 14.5407 45.5959 15.0917 44.3989 15.3149C43.202 15.5381 41.9613 15.4235 40.8338 14.9857C39.7063 14.5478 38.7426 13.8064 38.0646 12.8551C37.3866 11.9038 37.0247 10.7854 37.0247 9.64126C37.0265 8.10756 37.6772 6.63716 38.834 5.55267C39.9908 4.46818 41.5592 3.85818 43.1951 3.85651Z" fill="#797979"/>
<path d="M61.6296 38.4367C61.017 34.2142 58.8159 30.3356 55.4231 27.4999C52.0549 24.6926 47.7055 23.1409 43.1988 23.1387C41.0721 23.1349 38.9612 23.481 36.9621 24.1612C36.4508 24.3371 36.0348 24.6959 35.8054 25.159C35.576 25.622 35.5518 26.1515 35.7383 26.6312C35.9247 27.1109 36.3065 27.5017 36.7999 27.7179C37.2933 27.934 37.858 27.9579 38.3701 27.7842C40.7899 26.9938 43.3898 26.8181 45.9056 27.2748C48.4213 27.7316 50.7633 28.8045 52.6934 30.3847C55.3542 32.612 57.0785 35.6573 57.5552 38.9715C57.6237 39.4079 57.5913 39.853 57.4604 40.2766C57.3294 40.7003 57.1028 41.0926 56.796 41.427C56.5121 41.74 56.1588 41.9911 55.7607 42.1628C55.3626 42.3345 54.9293 42.4227 54.4911 42.4212H42.1091C41.5636 42.4212 41.0405 42.6244 40.6548 42.986C40.269 43.3476 40.0523 43.8381 40.0523 44.3495C40.0523 44.8609 40.269 45.3513 40.6548 45.713C41.0405 46.0746 41.5636 46.2777 42.1091 46.2777H54.4911C55.5178 46.2768 56.5323 46.0689 57.4659 45.6684C58.3995 45.2678 59.2304 44.6838 59.9022 43.9559C60.5946 43.2054 61.1071 42.3243 61.4051 41.3721C61.7031 40.42 61.7797 39.4189 61.6296 38.4367Z" fill="#797979"/>
</svg>
