<svg width="38" height="47" viewBox="0 0 38 47" fill="none" xmlns="http://www.w3.org/2000/svg">
<path d="M18.5162 19.2825C20.5502 19.2825 22.5385 18.7171 24.2297 17.6577C25.9209 16.5983 27.239 15.0925 28.0173 13.3308C28.7957 11.5691 28.9994 9.63057 28.6026 7.76035C28.2058 5.89013 27.2263 4.17222 25.7881 2.82386C24.3498 1.47551 22.5174 0.557269 20.5225 0.185258C18.5276 -0.186752 16.4598 0.0041774 14.5807 0.733902C12.7015 1.46363 11.0954 2.69937 9.96534 4.28487C8.83532 5.87036 8.23218 7.7344 8.23218 9.64126C8.23538 12.1974 9.3199 14.6479 11.2478 16.4553C13.1758 18.2628 15.7897 19.2795 18.5162 19.2825ZM18.5162 3.85651C19.7366 3.85651 20.9295 4.19578 21.9443 4.83142C22.959 5.46705 23.7499 6.37051 24.2169 7.42753C24.6839 8.48456 24.8061 9.64768 24.568 10.7698C24.3299 11.8919 23.7423 12.9227 22.8793 13.7317C22.0164 14.5407 20.9169 15.0917 19.72 15.3149C18.523 15.5381 17.2824 15.4235 16.1549 14.9857C15.0274 14.5478 14.0637 13.8064 13.3857 12.8551C12.7077 11.9038 12.3458 10.7854 12.3458 9.64126C12.3476 8.10756 12.9982 6.63716 14.155 5.55267C15.3118 4.46818 16.8802 3.85818 18.5162 3.85651Z" fill="#797979"/>
<path d="M18.511 23.1387C13.9915 23.1904 9.64254 24.7639 6.25769 27.572C2.87283 30.38 0.677797 34.2355 0.0731543 38.4348C-0.075382 39.418 0.00285719 40.4197 0.302588 41.3721C0.602319 42.3246 1.11656 43.2057 1.81059 43.9559C2.4824 44.6833 3.31297 45.2671 4.24615 45.6676C5.17934 46.0682 6.19338 46.2762 7.21973 46.2777H29.8024C30.8287 46.2762 31.8428 46.0682 32.7759 45.6676C33.7091 45.2671 34.5397 44.6833 35.2115 43.9559C35.9055 43.2057 36.4198 42.3246 36.7195 41.3721C37.0192 40.4197 37.0975 39.418 36.9489 38.4348C36.3443 34.2355 34.1493 30.38 30.7644 27.572C27.3796 24.7639 23.0306 23.1904 18.511 23.1387ZM32.1082 41.4251C31.8239 41.7379 31.4704 41.9891 31.0722 42.1611C30.6741 42.3331 30.2408 42.4218 29.8024 42.4212H7.21973C6.78132 42.4218 6.34801 42.3331 5.94984 42.1611C5.55168 41.9891 5.19818 41.7379 4.91387 41.4251C4.60631 41.0909 4.37869 40.6989 4.24633 40.2753C4.11398 39.8518 4.07997 39.4065 4.14658 38.9696C4.61062 35.6902 6.31676 32.6765 8.95373 30.4783C11.5907 28.28 14.9828 27.0438 18.511 26.9952C22.0393 27.0438 25.4314 28.28 28.0684 30.4783C30.7053 32.6765 32.4115 35.6902 32.8755 38.9696C32.9421 39.4065 32.9081 39.8518 32.7758 40.2753C32.6434 40.6989 32.4158 41.0909 32.1082 41.4251Z" fill="#797979"/>
</svg>
