<svg width="56" height="49" viewBox="0 0 56 49" fill="none" xmlns="http://www.w3.org/2000/svg">
<path d="M53.0849 1.91267L50.8284 0.609969C48.6514 -0.647011 45.8573 0.101391 44.6001 2.27886L39.4369 11.2215H10.3618L3.03791 6.33887C2.4384 5.9392 1.66733 5.90182 1.032 6.24195C0.396673 6.58196 0 7.24412 0 7.96478V41.8351C0 45.7858 3.21417 49 7.16488 49H36.8666C40.8173 49 44.0314 45.7858 44.0314 41.8351V26.7125L54.7537 8.14091C56.0107 5.9637 55.2621 3.16978 53.0849 1.91267ZM40.1233 41.8351C40.1233 43.6309 38.6623 45.0919 36.8666 45.0919H7.16488C5.3691 45.0919 3.90812 43.6309 3.90812 41.8351V11.616L8.68644 14.8015C9.00743 15.0155 9.38456 15.1297 9.77029 15.1297H37.1806L30.0697 27.4461L29.0527 35.9729H9.77029C8.69113 35.9729 7.81623 36.8478 7.81623 37.927C7.81623 39.0062 8.69113 39.8811 9.77029 39.8811H30.6715C31.1034 39.9092 31.5548 39.7934 31.9581 39.4917L40.1233 33.3832V41.8351ZM37.2399 30.6595L33.2678 33.6311L33.8555 28.7054L43.7508 11.566L47.1354 13.52L37.2399 30.6595ZM51.3692 6.18698L49.0895 10.1356L45.7049 8.18155L47.9846 4.23305C48.1641 3.92197 48.5634 3.81501 48.8744 3.99466L51.1308 5.29736C51.4418 5.47674 51.5487 5.87589 51.3692 6.18698Z" fill="#797979"/>
<path d="M9.76985 32.0649H23.8391C24.9182 32.0649 25.7931 31.19 25.7931 30.1108C25.7931 29.0316 24.9182 28.1567 23.8391 28.1567H9.76985C8.69069 28.1567 7.8158 29.0316 7.8158 30.1108C7.8158 31.19 8.69069 32.0649 9.76985 32.0649Z" fill="#797979"/>
<path d="M9.76985 24.248H23.8391C24.9182 24.248 25.7931 23.3731 25.7931 22.2939C25.7931 21.2147 24.9182 20.3398 23.8391 20.3398H9.76985C8.69069 20.3398 7.8158 21.2147 7.8158 22.2939C7.8158 23.3731 8.69069 24.248 9.76985 24.248Z" fill="#797979"/>
</svg>
